# xmcd CD database file
#
# Track frame offsets:
#	150
#	11160
#	23390
#	34705
#	46181
#	59316
#	71781
#	83973
#	95666
#	106280
#	120405
#	132964
#	144150
#	156678
#	168104
#	180633
#	195051
#	207304
#	218266
#	227761
#	239081
#	251044
#	262031
#	273168
#	283753
#	296227
#	308194
#	320624
#
# Disc length: 4445 seconds
#
# Revision: 1
# Processed by: cddbd v1.4PL0 Copyright (c) Steve Scherf et al.
# Submitted via: CDex 1.51
#
DISCID=95115b1c
DTITLE=Celia Cruz - Salsa Queen
DYEAR=2003
DGENRE=Salsa
TTITLE0=Rock and roll
TTITLE1=La sopa en botella
TTITLE2=La cumbanchera de belen
TTITLE3=Con la punta del pie Teresa
TTITLE4=Los ritmos cambian
TTITLE5=Camadde
TTITLE6=Chango ta' veni
TTITLE7=La negrita sandunguera
TTITLE8=Baho kende
TTITLE9=Madre rumba
TTITLE10=Poco a poco
TTITLE11=Bajo la luna
TTITLE12=Oyeme aggayu
TTITLE13=El congo
TTITLE14=Ritmo de mi Cuba
TTITLE15=Saluda a elegua
TTITLE16=Llego la zafra
TTITLE17=Crocante Habanero
TTITLE18=Asi quiero morir
TTITLE19=Suena el cuero
TTITLE20=Caramelos
TTITLE21=Taina
TTITLE22=Tamborilero
TTITLE23=Pregones de San Cristobal
TTITLE24=Suenos de luna
TTITLE25=Marcianita
TTITLE26=Resurge el omelenko
TTITLE27=Mal agradecido
EXTD=YEAR: 2003
EXTT0=
EXTT1=
EXTT2=
EXTT3=
EXTT4=
EXTT5=
EXTT6=
EXTT7=
EXTT8=
EXTT9=
EXTT10=
EXTT11=
EXTT12=
EXTT13=
EXTT14=
EXTT15=
EXTT16=
EXTT17=
EXTT18=
EXTT19=
EXTT20=
EXTT21=
EXTT22=
EXTT23=
EXTT24=
EXTT25=
EXTT26=
EXTT27=
PLAYORDER=
